<mxfile host="app.diagrams.net" modified="2023-05-03T21:57:47.919Z" agent="Mozilla/5.0 (Windows NT 10.0; Win64; x64; rv:109.0) Gecko/20100101 Firefox/112.0" version="21.2.7" etag="KuxJOsRtiLwsrusbNUxC" type="github">
  <diagram name="Page-1" id="i1VUmE347T4xIpt1TsKv">
    <mxGraphModel>
      <root>
        <mxCell id="0" />
        <mxCell id="1" parent="0" />
      </root>
    </mxGraphModel>
  </diagram>
</mxfile>
